<svg width="20" height="20" viewBox="0 0 20 20" fill="none" xmlns="http://www.w3.org/2000/svg">
<path fill-rule="evenodd" clip-rule="evenodd" d="M11.1783 9.99999L14.7558 6.42249C15.0816 6.09666 15.0816 5.56999 14.7558 5.24416C14.43 4.91833 13.9033 4.91833 13.5775 5.24416L9.99996 8.82166L6.42246 5.24416C6.09663 4.91833 5.56996 4.91833 5.24413 5.24416C4.9183 5.56999 4.9183 6.09666 5.24413 6.42249L8.82163 9.99999L5.24413 13.5775C4.9183 13.9033 4.9183 14.43 5.24413 14.7558C5.40663 14.9183 5.61996 15 5.8333 15C6.04663 15 6.25996 14.9183 6.42246 14.7558L9.99996 11.1783L13.5775 14.7558C13.74 14.9183 13.9533 15 14.1666 15C14.38 15 14.5933 14.9183 14.7558 14.7558C15.0816 14.43 15.0816 13.9033 14.7558 13.5775L11.1783 9.99999Z" fill="black"/>
<mask id="mask0_309_532" style="mask-type:alpha" maskUnits="userSpaceOnUse" x="4" y="4" width="12" height="11">
<path fill-rule="evenodd" clip-rule="evenodd" d="M11.1783 9.99999L14.7558 6.42249C15.0816 6.09666 15.0816 5.56999 14.7558 5.24416C14.43 4.91833 13.9033 4.91833 13.5775 5.24416L9.99996 8.82166L6.42246 5.24416C6.09663 4.91833 5.56996 4.91833 5.24413 5.24416C4.9183 5.56999 4.9183 6.09666 5.24413 6.42249L8.82163 9.99999L5.24413 13.5775C4.9183 13.9033 4.9183 14.43 5.24413 14.7558C5.40663 14.9183 5.61996 15 5.8333 15C6.04663 15 6.25996 14.9183 6.42246 14.7558L9.99996 11.1783L13.5775 14.7558C13.74 14.9183 13.9533 15 14.1666 15C14.38 15 14.5933 14.9183 14.7558 14.7558C15.0816 14.43 15.0816 13.9033 14.7558 13.5775L11.1783 9.99999Z" fill="white"/>
</mask>
<g mask="url(#mask0_309_532)">
<rect width="20" height="20" fill="#0D1C2E"/>
</g>
</svg>
